<mxfile host="app.diagrams.net" modified="2024-06-07T21:49:37.243Z" agent="Mozilla/5.0 (X11; Linux x86_64) AppleWebKit/537.36 (KHTML, like Gecko) Chrome/125.0.0.0 Safari/537.36" etag="54f9n-nUPYCryvjb80FO" version="24.5.2" type="github">
  <diagram name="Page-1" id="oUrtw_3djIeICZ6aYUFe">
    <mxGraphModel dx="1434" dy="789" grid="1" gridSize="10" guides="1" tooltips="1" connect="1" arrows="1" fold="1" page="1" pageScale="1" pageWidth="850" pageHeight="1100" math="0" shadow="0">
      <root>
        <mxCell id="0" />
        <mxCell id="1" parent="0" />
        <mxCell id="MkQvWn6cAgsR6RFx1JYP-8" style="edgeStyle=orthogonalEdgeStyle;rounded=0;orthogonalLoop=1;jettySize=auto;html=1;exitX=1;exitY=0.5;exitDx=0;exitDy=0;entryX=0;entryY=0.5;entryDx=0;entryDy=0;endArrow=none;endFill=0;startArrow=ERzeroToMany;startFill=0;" edge="1" parent="1" source="MkQvWn6cAgsR6RFx1JYP-1" target="MkQvWn6cAgsR6RFx1JYP-6">
          <mxGeometry relative="1" as="geometry" />
        </mxCell>
        <mxCell id="MkQvWn6cAgsR6RFx1JYP-12" style="edgeStyle=orthogonalEdgeStyle;rounded=1;orthogonalLoop=1;jettySize=auto;html=1;exitX=0.5;exitY=0;exitDx=0;exitDy=0;entryX=0.5;entryY=1;entryDx=0;entryDy=0;endArrow=none;endFill=0;curved=0;startArrow=ERoneToMany;startFill=0;" edge="1" parent="1" source="MkQvWn6cAgsR6RFx1JYP-1" target="MkQvWn6cAgsR6RFx1JYP-5">
          <mxGeometry relative="1" as="geometry" />
        </mxCell>
        <mxCell id="MkQvWn6cAgsR6RFx1JYP-1" value="Producto" style="whiteSpace=wrap;html=1;align=center;" vertex="1" parent="1">
          <mxGeometry x="370" y="400" width="100" height="40" as="geometry" />
        </mxCell>
        <mxCell id="MkQvWn6cAgsR6RFx1JYP-23" style="edgeStyle=orthogonalEdgeStyle;rounded=1;orthogonalLoop=1;jettySize=auto;html=1;exitX=0.5;exitY=0;exitDx=0;exitDy=0;entryX=0.5;entryY=1;entryDx=0;entryDy=0;curved=0;endArrow=none;endFill=0;" edge="1" parent="1" source="MkQvWn6cAgsR6RFx1JYP-2" target="MkQvWn6cAgsR6RFx1JYP-14">
          <mxGeometry relative="1" as="geometry" />
        </mxCell>
        <mxCell id="MkQvWn6cAgsR6RFx1JYP-24" style="edgeStyle=orthogonalEdgeStyle;rounded=1;orthogonalLoop=1;jettySize=auto;html=1;exitX=0.5;exitY=0;exitDx=0;exitDy=0;entryX=0.5;entryY=1;entryDx=0;entryDy=0;curved=0;endArrow=none;endFill=0;" edge="1" parent="1" source="MkQvWn6cAgsR6RFx1JYP-2" target="MkQvWn6cAgsR6RFx1JYP-15">
          <mxGeometry relative="1" as="geometry" />
        </mxCell>
        <mxCell id="MkQvWn6cAgsR6RFx1JYP-25" style="edgeStyle=orthogonalEdgeStyle;rounded=1;orthogonalLoop=1;jettySize=auto;html=1;exitX=0.5;exitY=0;exitDx=0;exitDy=0;entryX=0.5;entryY=1;entryDx=0;entryDy=0;curved=0;endArrow=none;endFill=0;" edge="1" parent="1" source="MkQvWn6cAgsR6RFx1JYP-2" target="MkQvWn6cAgsR6RFx1JYP-16">
          <mxGeometry relative="1" as="geometry" />
        </mxCell>
        <mxCell id="MkQvWn6cAgsR6RFx1JYP-26" style="edgeStyle=orthogonalEdgeStyle;rounded=1;orthogonalLoop=1;jettySize=auto;html=1;exitX=0.5;exitY=0;exitDx=0;exitDy=0;entryX=0.5;entryY=1;entryDx=0;entryDy=0;curved=0;endArrow=none;endFill=0;" edge="1" parent="1" source="MkQvWn6cAgsR6RFx1JYP-2" target="MkQvWn6cAgsR6RFx1JYP-17">
          <mxGeometry relative="1" as="geometry" />
        </mxCell>
        <mxCell id="MkQvWn6cAgsR6RFx1JYP-27" style="edgeStyle=orthogonalEdgeStyle;rounded=1;orthogonalLoop=1;jettySize=auto;html=1;exitX=0.5;exitY=0;exitDx=0;exitDy=0;entryX=0.5;entryY=1;entryDx=0;entryDy=0;curved=0;endArrow=none;endFill=0;" edge="1" parent="1" source="MkQvWn6cAgsR6RFx1JYP-2" target="MkQvWn6cAgsR6RFx1JYP-18">
          <mxGeometry relative="1" as="geometry" />
        </mxCell>
        <mxCell id="MkQvWn6cAgsR6RFx1JYP-2" value="Proveedor" style="whiteSpace=wrap;html=1;align=center;" vertex="1" parent="1">
          <mxGeometry x="370" y="220" width="100" height="40" as="geometry" />
        </mxCell>
        <mxCell id="MkQvWn6cAgsR6RFx1JYP-10" style="edgeStyle=orthogonalEdgeStyle;rounded=1;orthogonalLoop=1;jettySize=auto;html=1;exitX=1;exitY=0.5;exitDx=0;exitDy=0;entryX=0;entryY=0.5;entryDx=0;entryDy=0;curved=0;endArrow=none;endFill=0;startArrow=ERzeroToMany;startFill=0;" edge="1" parent="1" source="MkQvWn6cAgsR6RFx1JYP-3" target="MkQvWn6cAgsR6RFx1JYP-7">
          <mxGeometry relative="1" as="geometry" />
        </mxCell>
        <mxCell id="MkQvWn6cAgsR6RFx1JYP-3" value="Cliente" style="whiteSpace=wrap;html=1;align=center;" vertex="1" parent="1">
          <mxGeometry x="80" y="400" width="100" height="40" as="geometry" />
        </mxCell>
        <mxCell id="MkQvWn6cAgsR6RFx1JYP-4" value="Categoria" style="whiteSpace=wrap;html=1;align=center;" vertex="1" parent="1">
          <mxGeometry x="660" y="400" width="100" height="40" as="geometry" />
        </mxCell>
        <mxCell id="MkQvWn6cAgsR6RFx1JYP-13" style="edgeStyle=orthogonalEdgeStyle;rounded=1;orthogonalLoop=1;jettySize=auto;html=1;exitX=0.5;exitY=0;exitDx=0;exitDy=0;entryX=0.5;entryY=1;entryDx=0;entryDy=0;curved=0;endArrow=ERzeroToOne;endFill=0;startArrow=none;startFill=0;" edge="1" parent="1" source="MkQvWn6cAgsR6RFx1JYP-5" target="MkQvWn6cAgsR6RFx1JYP-2">
          <mxGeometry relative="1" as="geometry" />
        </mxCell>
        <mxCell id="MkQvWn6cAgsR6RFx1JYP-5" value="Distribuye" style="shape=rhombus;perimeter=rhombusPerimeter;whiteSpace=wrap;html=1;align=center;" vertex="1" parent="1">
          <mxGeometry x="360" y="300" width="120" height="60" as="geometry" />
        </mxCell>
        <mxCell id="MkQvWn6cAgsR6RFx1JYP-9" style="edgeStyle=orthogonalEdgeStyle;rounded=1;orthogonalLoop=1;jettySize=auto;html=1;exitX=1;exitY=0.5;exitDx=0;exitDy=0;entryX=0;entryY=0.5;entryDx=0;entryDy=0;curved=0;endArrow=ERmandOne;endFill=0;" edge="1" parent="1" source="MkQvWn6cAgsR6RFx1JYP-6" target="MkQvWn6cAgsR6RFx1JYP-4">
          <mxGeometry relative="1" as="geometry" />
        </mxCell>
        <mxCell id="MkQvWn6cAgsR6RFx1JYP-6" value="Pertenece" style="shape=rhombus;perimeter=rhombusPerimeter;whiteSpace=wrap;html=1;align=center;" vertex="1" parent="1">
          <mxGeometry x="510" y="390" width="120" height="60" as="geometry" />
        </mxCell>
        <mxCell id="MkQvWn6cAgsR6RFx1JYP-11" style="edgeStyle=orthogonalEdgeStyle;rounded=0;orthogonalLoop=1;jettySize=auto;html=1;exitX=1;exitY=0.5;exitDx=0;exitDy=0;entryX=0;entryY=0.5;entryDx=0;entryDy=0;endArrow=ERzeroToMany;endFill=0;" edge="1" parent="1" source="MkQvWn6cAgsR6RFx1JYP-7" target="MkQvWn6cAgsR6RFx1JYP-1">
          <mxGeometry relative="1" as="geometry" />
        </mxCell>
        <mxCell id="MkQvWn6cAgsR6RFx1JYP-7" value="Compra" style="shape=rhombus;perimeter=rhombusPerimeter;whiteSpace=wrap;html=1;align=center;" vertex="1" parent="1">
          <mxGeometry x="210" y="390" width="120" height="60" as="geometry" />
        </mxCell>
        <mxCell id="MkQvWn6cAgsR6RFx1JYP-14" value="idFiscal" style="ellipse;whiteSpace=wrap;html=1;align=center;fontStyle=4;" vertex="1" parent="1">
          <mxGeometry x="150" y="120" width="100" height="40" as="geometry" />
        </mxCell>
        <mxCell id="MkQvWn6cAgsR6RFx1JYP-15" value="nombre" style="ellipse;whiteSpace=wrap;html=1;align=center;" vertex="1" parent="1">
          <mxGeometry x="260" y="120" width="100" height="40" as="geometry" />
        </mxCell>
        <mxCell id="MkQvWn6cAgsR6RFx1JYP-28" style="edgeStyle=orthogonalEdgeStyle;rounded=1;orthogonalLoop=1;jettySize=auto;html=1;exitX=0.5;exitY=0;exitDx=0;exitDy=0;entryX=0.5;entryY=1;entryDx=0;entryDy=0;curved=0;endArrow=none;endFill=0;" edge="1" parent="1" source="MkQvWn6cAgsR6RFx1JYP-16" target="MkQvWn6cAgsR6RFx1JYP-21">
          <mxGeometry relative="1" as="geometry" />
        </mxCell>
        <mxCell id="MkQvWn6cAgsR6RFx1JYP-29" style="edgeStyle=orthogonalEdgeStyle;rounded=1;orthogonalLoop=1;jettySize=auto;html=1;exitX=0.5;exitY=0;exitDx=0;exitDy=0;entryX=0.5;entryY=1;entryDx=0;entryDy=0;curved=0;endArrow=none;endFill=0;" edge="1" parent="1" source="MkQvWn6cAgsR6RFx1JYP-16" target="MkQvWn6cAgsR6RFx1JYP-22">
          <mxGeometry relative="1" as="geometry" />
        </mxCell>
        <mxCell id="MkQvWn6cAgsR6RFx1JYP-30" style="edgeStyle=orthogonalEdgeStyle;rounded=1;orthogonalLoop=1;jettySize=auto;html=1;exitX=0.5;exitY=0;exitDx=0;exitDy=0;entryX=0.5;entryY=1;entryDx=0;entryDy=0;curved=0;endArrow=none;endFill=0;" edge="1" parent="1" source="MkQvWn6cAgsR6RFx1JYP-16" target="MkQvWn6cAgsR6RFx1JYP-19">
          <mxGeometry relative="1" as="geometry" />
        </mxCell>
        <mxCell id="MkQvWn6cAgsR6RFx1JYP-31" style="edgeStyle=orthogonalEdgeStyle;rounded=1;orthogonalLoop=1;jettySize=auto;html=1;exitX=0.5;exitY=0;exitDx=0;exitDy=0;entryX=0.5;entryY=1;entryDx=0;entryDy=0;curved=0;endArrow=none;endFill=0;" edge="1" parent="1" source="MkQvWn6cAgsR6RFx1JYP-16" target="MkQvWn6cAgsR6RFx1JYP-20">
          <mxGeometry relative="1" as="geometry" />
        </mxCell>
        <mxCell id="MkQvWn6cAgsR6RFx1JYP-16" value="direccion" style="ellipse;whiteSpace=wrap;html=1;align=center;" vertex="1" parent="1">
          <mxGeometry x="370" y="120" width="100" height="40" as="geometry" />
        </mxCell>
        <mxCell id="MkQvWn6cAgsR6RFx1JYP-17" value="telefono" style="ellipse;shape=doubleEllipse;margin=3;whiteSpace=wrap;html=1;align=center;" vertex="1" parent="1">
          <mxGeometry x="480" y="120" width="100" height="40" as="geometry" />
        </mxCell>
        <mxCell id="MkQvWn6cAgsR6RFx1JYP-18" value="paginaWeb" style="ellipse;whiteSpace=wrap;html=1;align=center;" vertex="1" parent="1">
          <mxGeometry x="590" y="120" width="100" height="40" as="geometry" />
        </mxCell>
        <mxCell id="MkQvWn6cAgsR6RFx1JYP-19" value="comuna" style="ellipse;whiteSpace=wrap;html=1;align=center;" vertex="1" parent="1">
          <mxGeometry x="430" y="20" width="100" height="40" as="geometry" />
        </mxCell>
        <mxCell id="MkQvWn6cAgsR6RFx1JYP-20" value="ciudad" style="ellipse;whiteSpace=wrap;html=1;align=center;" vertex="1" parent="1">
          <mxGeometry x="540" y="20" width="100" height="40" as="geometry" />
        </mxCell>
        <mxCell id="MkQvWn6cAgsR6RFx1JYP-21" value="calle" style="ellipse;whiteSpace=wrap;html=1;align=center;" vertex="1" parent="1">
          <mxGeometry x="210" y="20" width="100" height="40" as="geometry" />
        </mxCell>
        <mxCell id="MkQvWn6cAgsR6RFx1JYP-22" value="numero" style="ellipse;whiteSpace=wrap;html=1;align=center;" vertex="1" parent="1">
          <mxGeometry x="320" y="20" width="100" height="40" as="geometry" />
        </mxCell>
      </root>
    </mxGraphModel>
  </diagram>
</mxfile>
